<svg version="1.1" id="Layer_1" xmlns="http://www.w3.org/2000/svg" xmlns:xlink="http://www.w3.org/1999/xlink" x="0px" y="0px"
	 width="100%" viewBox="0 0 200 200" enable-background="new 0 0 200 200" xml:space="preserve">
<path fill="#54BFB0" opacity="1.000000" stroke="none" 
	d="
M91.000000,201.000000 
	C60.685322,201.000000 30.870644,201.000000 1.027983,201.000000 
	C1.027983,134.393692 1.027983,67.787354 1.027983,1.090514 
	C67.564529,1.090514 134.129211,1.090514 200.846954,1.090514 
	C200.846954,67.666397 200.846954,134.333160 200.846954,201.000000 
	C164.454315,201.000000 127.977158,201.000000 91.000000,201.000000 
M95.549263,102.500183 
	C95.549622,96.172874 95.806549,89.831619 95.463486,83.522987 
	C95.219704,79.040054 96.502190,77.426910 101.231377,77.563026 
	C112.710945,77.893448 124.206963,77.715218 135.694977,77.602104 
	C136.974915,77.589508 138.381851,76.858147 139.442352,76.072166 
	C139.781677,75.820679 139.442978,73.689171 138.981461,73.505402 
	C137.658371,72.978569 136.113739,72.846893 134.655701,72.844467 
	C113.343086,72.808960 92.030396,72.817650 70.717720,72.826111 
	C69.554695,72.826576 68.285583,72.646500 67.260597,73.047821 
	C66.359879,73.400497 65.125359,74.470078 65.147362,75.189087 
	C65.171623,75.981834 66.347832,77.203064 67.220604,77.412994 
	C69.258759,77.903229 71.415718,77.899544 74.088287,78.148407 
	C74.088287,98.969467 74.088287,119.492088 74.088287,141.768494 
	C81.407272,134.638931 88.070114,134.510880 95.548744,142.168671 
	C95.548744,127.985031 95.548744,115.742615 95.549263,102.500183 
M130.225998,139.221634 
	C130.225998,122.611832 130.225998,106.002022 130.225998,89.197052 
	C122.844246,89.197052 116.149284,89.197052 109.328018,89.197052 
	C109.328018,109.201286 109.328018,128.773972 109.328018,148.907013 
	C121.596169,148.907013 133.550461,148.953064 145.502579,148.812683 
	C146.383987,148.802338 147.249588,147.448395 148.122543,146.719086 
	C147.219894,145.833664 146.373337,144.262985 145.404709,144.183701 
	C141.596100,143.871933 137.746170,143.931808 133.917267,144.045349 
	C131.074463,144.129639 129.957306,142.868149 130.225998,139.221634 
M88.499649,69.330406 
	C103.468422,69.330589 118.437187,69.325409 133.405960,69.334557 
	C137.396820,69.336990 141.397842,69.547295 145.371689,69.300117 
	C146.432861,69.234100 147.410858,67.830688 148.427048,67.041283 
	C147.376022,66.120369 146.393143,65.097183 145.240433,64.328835 
	C144.778946,64.021233 143.943405,64.273186 143.278137,64.273186 
	C118.829124,64.273178 94.380112,64.264503 69.931129,64.292023 
	C68.111122,64.294067 66.256958,64.380852 64.478195,64.730812 
	C59.626781,65.685326 56.631306,69.138901 56.188530,74.029961 
	C55.454727,82.135788 61.317173,86.826172 70.887634,85.464920 
	C70.887634,84.127533 70.887634,82.740608 70.887634,81.291161 
	C69.960098,81.176987 69.308525,81.062920 68.652367,81.021347 
	C63.124691,80.671120 60.711197,78.759972 61.076164,74.743629 
	C61.524216,69.812965 65.065712,69.307564 69.039551,69.351402 
	C75.192070,69.419273 81.346176,69.344185 88.499649,69.330406 
M139.401276,80.981628 
	C126.924667,80.982262 114.447273,80.921013 101.972717,81.081467 
	C100.756180,81.097115 99.557228,82.479919 98.350121,83.228119 
	C99.578835,84.129433 100.793633,85.790787 102.038429,85.813583 
	C113.512657,86.023659 124.992081,85.951088 136.469986,85.959106 
	C140.239243,85.961731 144.008499,85.959518 147.615204,85.959518 
	C148.722839,82.584366 148.366043,80.765205 144.851151,80.977371 
	C143.359573,81.067406 141.857697,80.986824 139.401276,80.981628 
z"/>
<path fill="#FAFDFD" opacity="1.000000" stroke="none" 
	d="
M95.549004,103.000191 
	C95.548744,115.742615 95.548744,127.985031 95.548744,142.168671 
	C88.070114,134.510880 81.407272,134.638931 74.088287,141.768494 
	C74.088287,119.492088 74.088287,98.969467 74.088287,78.148407 
	C71.415718,77.899544 69.258759,77.903229 67.220604,77.412994 
	C66.347832,77.203064 65.171623,75.981834 65.147362,75.189087 
	C65.125359,74.470078 66.359879,73.400497 67.260597,73.047821 
	C68.285583,72.646500 69.554695,72.826576 70.717720,72.826111 
	C92.030396,72.817650 113.343086,72.808960 134.655701,72.844467 
	C136.113739,72.846893 137.658371,72.978569 138.981461,73.505402 
	C139.442978,73.689171 139.781677,75.820679 139.442352,76.072166 
	C138.381851,76.858147 136.974915,77.589508 135.694977,77.602104 
	C124.206963,77.715218 112.710945,77.893448 101.231377,77.563026 
	C96.502190,77.426910 95.219704,79.040054 95.463486,83.522987 
	C95.806549,89.831619 95.549622,96.172874 95.549004,103.000191 
z"/>
<path fill="#FDFEFE" opacity="1.000000" stroke="none" 
	d="
M130.224091,139.685638 
	C129.957306,142.868149 131.074463,144.129639 133.917267,144.045349 
	C137.746170,143.931808 141.596100,143.871933 145.404709,144.183701 
	C146.373337,144.262985 147.219894,145.833664 148.122543,146.719086 
	C147.249588,147.448395 146.383987,148.802338 145.502579,148.812683 
	C133.550461,148.953064 121.596169,148.907013 109.328018,148.907013 
	C109.328018,128.773972 109.328018,109.201286 109.328018,89.197052 
	C116.149284,89.197052 122.844246,89.197052 130.225998,89.197052 
	C130.225998,106.002022 130.225998,122.611832 130.224091,139.685638 
z"/>
<path fill="#EFFAF9" opacity="1.000000" stroke="none" 
	d="
M87.999626,69.330063 
	C81.346176,69.344185 75.192070,69.419273 69.039551,69.351402 
	C65.065712,69.307564 61.524216,69.812965 61.076164,74.743629 
	C60.711197,78.759972 63.124691,80.671120 68.652367,81.021347 
	C69.308525,81.062920 69.960098,81.176987 70.887634,81.291161 
	C70.887634,82.740608 70.887634,84.127533 70.887634,85.464920 
	C61.317173,86.826172 55.454727,82.135788 56.188530,74.029961 
	C56.631306,69.138901 59.626781,65.685326 64.478195,64.730812 
	C66.256958,64.380852 68.111122,64.294067 69.931129,64.292023 
	C94.380112,64.264503 118.829124,64.273178 143.278137,64.273186 
	C143.943405,64.273186 144.778946,64.021233 145.240433,64.328835 
	C146.393143,65.097183 147.376022,66.120369 148.427048,67.041275 
	C147.410858,67.830688 146.432861,69.234100 145.371689,69.300117 
	C141.397842,69.547295 137.396820,69.336990 133.405960,69.334557 
	C118.437187,69.325409 103.468422,69.330589 87.999626,69.330063 
z"/>
<path fill="#F2FBFA" opacity="1.000000" stroke="none" 
	d="
M139.880890,80.982704 
	C141.857697,80.986824 143.359573,81.067406 144.851151,80.977371 
	C148.366043,80.765205 148.722839,82.584366 147.615204,85.959518 
	C144.008499,85.959518 140.239243,85.961731 136.469986,85.959106 
	C124.992081,85.951088 113.512657,86.023659 102.038429,85.813583 
	C100.793633,85.790787 99.578835,84.129433 98.350121,83.228119 
	C99.557228,82.479919 100.756180,81.097115 101.972717,81.081467 
	C114.447273,80.921013 126.924667,80.982262 139.880890,80.982704 
z"/>
</svg>